<?xml version="1.0" encoding="utf-8"?>
<svg width="341px" height="340px" viewBox="0 0 341 340" version="1.1" xmlns:xlink="http://www.w3.org/1999/xlink" xmlns="http://www.w3.org/2000/svg">
  <g id="Group">
    <path d="M159.594 0.350052C104.294 3.75005 54.6936 33.55 24.8936 81.25C-1.40643 123.55 -7.30643 177.95 9.29357 225.55C20.5936 258.25 42.9936 287.85 72.0936 308.75C103.094 331.15 146.894 342.95 184.994 339.35C243.794 333.75 292.594 301.15 321.394 248.25C344.294 206.15 346.894 152.75 328.194 106.25C310.794 62.95 273.194 26.3501 229.894 10.65C206.494 2.15004 183.994 -1.14995 159.594 0.350052L159.594 0.350052ZM182.594 9.25005C203.794 11.15 220.994 15.65 239.494 24.3501C285.094 45.8501 317.794 87.8501 328.694 139.25C331.794 153.55 331.994 182.75 329.194 197.75C311.194 294.75 213.294 353.45 120.294 323.15C35.6936 295.55 -10.6064 204.15 17.1936 119.45C25.0936 95.2501 37.5936 75.05 56.4936 56.15C84.4936 28.2501 118.294 12.55 157.094 9.25005C170.294 8.15005 170.094 8.15005 182.594 9.25005L182.594 9.25005Z" id="Shape" fill="#ED1D2E" fill-rule="evenodd" stroke="none" />
    <path d="M131 0.71151C114.8 2.91149 96.4 8.6115 81.7 16.0115C62.8 25.5115 42.1 43.0115 28.9 60.5115C17 76.5115 6.8 99.1115 2.3 119.911C0.5 128.512 0.0999985 133.311 0 150.111C0 171.911 0.900002 178.212 6.7 196.612C23.9 251.012 72.7 291.812 129.8 299.512C142.4 301.211 162.9 300.812 175.7 298.711C227.4 289.812 271.4 254.012 290.8 205.012C298.3 186.311 302.3 161.212 301 142.112C296.3 72.4115 247.4 16.2115 179.6 2.5115C168.4 0.21151 141.7 -0.78849 131 0.71151L131 0.71151ZM74.5 75.6115C88.3 78.0115 87.5 78.0115 87.5 76.1115C87.5 74.9115 88.8 74.6115 93.4 74.6115C98.8 74.6115 99.4 74.8115 99.7 76.8115C100.1 79.8115 102.5 80.2115 129 81.6115C144.6 82.5115 155.3 82.5115 170.5 81.6115C199.3 80.1115 200.5 79.9115 200.5 77.0115C200.5 74.7115 200.9 74.6115 206.5 74.6115C211.2 74.6115 212.5 74.9115 212.5 76.1115C212.5 76.9115 213.1 77.6115 213.8 77.6115C215.1 77.6115 234.7 74.2115 240.3 73.0115C243.7 72.3115 244.1 72.9115 242.9 77.3115C242.2 79.8115 238.6 81.3115 223 85.6115L213 88.3115L212.7 99.0115L212.4 109.612L228.5 109.612L244.5 109.612L243.9 112.312C243.6 113.912 242.9 116.812 242.4 118.812L241.4 122.612L227 122.612L212.5 122.612L212.3 185.812L212 249.112L206.5 249.112L201 249.112L200.5 186.112L200 123.112L150 123.112L100 123.112L99.7 186.412L99.5 249.712L93.7 249.412L88 249.112L87.7 185.912L87.5 122.712L72.8 122.412L58.1 122.112L56.8 117.112C56.1 114.312 55.5 111.512 55.5 110.812C55.5 109.912 59.4 109.612 71.5 109.612L87.6 109.612L87.3 99.0115L87 88.4115L75.1 85.0115C60.3 80.7115 58.3 79.8115 57.4 76.4115C56.5 73.1115 57.2 72.4115 60.5 73.1115C61.9 73.4115 68.2 74.5115 74.5 75.6115L74.5 75.6115ZM126.8 143.611C133 150.511 128 160.611 118.4 160.611C116.2 160.611 114.3 159.611 111.8 157.111C108.6 153.911 108.3 153.111 108.8 149.511C110.1 139.911 120.4 136.511 126.8 143.611L126.8 143.611ZM157.1 143.011C162 147.911 161.6 154.411 156.1 158.811C151.2 162.811 141.7 159.411 140.1 153.011C139.1 149.011 141.3 143.711 144.9 141.511C149.6 138.611 153.1 139.011 157.1 143.011L157.1 143.011ZM186.6 141.212C190.3 143.112 192.9 148.612 192 152.712C191 157.012 186.2 160.612 181.3 160.612C171.2 160.612 167.6 146.712 176.3 141.312C179.7 139.212 182.8 139.212 186.6 141.212L186.6 141.212Z" transform="translate(20.093628 19.638428)" id="Shape" fill="#ED1D2E" fill-rule="evenodd" stroke="none" />
    <path d="M0.304062 0.662994C0.00405884 1.263 -0.0959473 5.36298 0.10405 9.763L0.404053 17.663L22.2041 17.963L44.0041 18.163L43.7041 10.963L43.4041 3.66299L31.4041 2.86298C24.8041 2.46298 15.2041 1.56299 10.104 0.763C2.90405 -0.237 0.60405 -0.237 0.304062 0.662994L0.304062 0.662994Z" transform="translate(119.689575 111.08716)" id="Shape" fill="#ED1D2E" fill-rule="evenodd" stroke="none" />
    <path d="M31 1C28.5 1.5 20.5 2.19998 13.3 2.60001L0 3.29999L0 10.7L0 18L22 18L44 18L44 9L44 0L39.8 0.100006C37.4 0.199982 33.5 0.600006 31 1L31 1Z" transform="translate(176.59363 111.25)" id="Shape" fill="#ED1D2E" fill-rule="evenodd" stroke="none" />
  </g>
</svg>