<?xml version="1.0" encoding="utf-8"?>
<svg width="520px" height="541px" viewBox="0 0 520 541" version="1.1" xmlns:xlink="http://www.w3.org/1999/xlink" xmlns="http://www.w3.org/2000/svg">
  <defs>
    <path d="M0 0L520 0L520 541L0 541L0 0Z" id="path_1" />
    <clipPath id="mask_1">
      <use xlink:href="#path_1" />
    </clipPath>
  </defs>
  <g id="www.brandcrowd">
    <path d="M0 0L520 0L520 541L0 541L0 0Z" id="Background" fill="none" fill-rule="evenodd" stroke="none" />
    <g clip-path="url(#mask_1)">
      <g id="Group" transform="translate(55 55.75)">
        <path d="M159.594 0.350052C104.294 3.75005 54.6936 33.55 24.8936 81.25C-1.40643 123.55 -7.30643 177.95 9.29357 225.55C20.5936 258.25 42.9936 287.85 72.0936 308.75C103.094 331.15 146.894 342.95 184.994 339.35C243.794 333.75 292.594 301.15 321.394 248.25C344.294 206.15 346.894 152.75 328.194 106.25C310.794 62.95 273.194 26.3501 229.894 10.65C206.494 2.15004 183.994 -1.14995 159.594 0.350052L159.594 0.350052ZM182.594 9.25005C203.794 11.15 220.994 15.65 239.494 24.3501C285.094 45.8501 317.794 87.8501 328.694 139.25C331.794 153.55 331.994 182.75 329.194 197.75C311.194 294.75 213.294 353.45 120.294 323.15C35.6936 295.55 -10.6064 204.15 17.1936 119.45C25.0936 95.2501 37.5936 75.05 56.4936 56.15C84.4936 28.2501 118.294 12.55 157.094 9.25005C170.294 8.15005 170.094 8.15005 182.594 9.25005L182.594 9.25005Z" transform="translate(41.406372 0)" id="Shape" fill="#ED1D2E" fill-rule="evenodd" stroke="none" />
        <path d="M131 0.71151C114.8 2.91149 96.4 8.6115 81.7 16.0115C62.8 25.5115 42.1 43.0115 28.9 60.5115C17 76.5115 6.8 99.1115 2.3 119.911C0.5 128.512 0.0999985 133.311 0 150.111C0 171.911 0.900002 178.212 6.7 196.612C23.9 251.012 72.7 291.812 129.8 299.512C142.4 301.211 162.9 300.812 175.7 298.711C227.4 289.812 271.4 254.012 290.8 205.012C298.3 186.311 302.3 161.212 301 142.112C296.3 72.4115 247.4 16.2115 179.6 2.5115C168.4 0.21151 141.7 -0.78849 131 0.71151L131 0.71151ZM74.5 75.6115C88.3 78.0115 87.5 78.0115 87.5 76.1115C87.5 74.9115 88.8 74.6115 93.4 74.6115C98.8 74.6115 99.4 74.8115 99.7 76.8115C100.1 79.8115 102.5 80.2115 129 81.6115C144.6 82.5115 155.3 82.5115 170.5 81.6115C199.3 80.1115 200.5 79.9115 200.5 77.0115C200.5 74.7115 200.9 74.6115 206.5 74.6115C211.2 74.6115 212.5 74.9115 212.5 76.1115C212.5 76.9115 213.1 77.6115 213.8 77.6115C215.1 77.6115 234.7 74.2115 240.3 73.0115C243.7 72.3115 244.1 72.9115 242.9 77.3115C242.2 79.8115 238.6 81.3115 223 85.6115L213 88.3115L212.7 99.0115L212.4 109.612L228.5 109.612L244.5 109.612L243.9 112.312C243.6 113.912 242.9 116.812 242.4 118.812L241.4 122.612L227 122.612L212.5 122.612L212.3 185.812L212 249.112L206.5 249.112L201 249.112L200.5 186.112L200 123.112L150 123.112L100 123.112L99.7 186.412L99.5 249.712L93.7 249.412L88 249.112L87.7 185.912L87.5 122.712L72.8 122.412L58.1 122.112L56.8 117.112C56.1 114.312 55.5 111.512 55.5 110.812C55.5 109.912 59.4 109.612 71.5 109.612L87.6 109.612L87.3 99.0115L87 88.4115L75.1 85.0115C60.3 80.7115 58.3 79.8115 57.4 76.4115C56.5 73.1115 57.2 72.4115 60.5 73.1115C61.9 73.4115 68.2 74.5115 74.5 75.6115L74.5 75.6115ZM126.8 143.611C133 150.511 128 160.611 118.4 160.611C116.2 160.611 114.3 159.611 111.8 157.111C108.6 153.911 108.3 153.111 108.8 149.511C110.1 139.911 120.4 136.511 126.8 143.611L126.8 143.611ZM157.1 143.011C162 147.911 161.6 154.411 156.1 158.811C151.2 162.811 141.7 159.411 140.1 153.011C139.1 149.011 141.3 143.711 144.9 141.511C149.6 138.611 153.1 139.011 157.1 143.011L157.1 143.011ZM186.6 141.212C190.3 143.112 192.9 148.612 192 152.712C191 157.012 186.2 160.612 181.3 160.612C171.2 160.612 167.6 146.712 176.3 141.312C179.7 139.212 182.8 139.212 186.6 141.212L186.6 141.212Z" transform="translate(61.5 19.638428)" id="Shape" fill="#ED1D2E" fill-rule="evenodd" stroke="none" />
        <path d="M0.304062 0.662994C0.00405884 1.263 -0.0959473 5.36298 0.10405 9.763L0.404053 17.663L22.2041 17.963L44.0041 18.163L43.7041 10.963L43.4041 3.66299L31.4041 2.86298C24.8041 2.46298 15.2041 1.56299 10.104 0.763C2.90405 -0.237 0.60405 -0.237 0.304062 0.662994L0.304062 0.662994Z" transform="translate(161.09595 111.08716)" id="Shape" fill="#ED1D2E" fill-rule="evenodd" stroke="none" />
        <path d="M31 1C28.5 1.5 20.5 2.19998 13.3 2.60001L0 3.29999L0 10.7L0 18L22 18L44 18L44 9L44 0L39.8 0.100006C37.4 0.199982 33.5 0.600006 31 1L31 1Z" transform="translate(218 111.25)" id="Shape" fill="#ED1D2E" fill-rule="evenodd" stroke="none" />
        <path d="M17 1.5C17 2.59998 15.3 3 9.89999 3.20001L2.70001 3.5L1.39999 8C0.600006 10.5 0 12.6 0 12.7C0 12.9 1 13 2.20001 13C4.20001 13 4.20001 13.1 2.70001 14.8C1.30002 16.4 1 19.2 1 32.9L1 49.1L5.80002 48.8L10.5 48.5L11 31L11.5 13.5L14 13.5L16.5 13.5L16.8 31.2C17 44.5 17.4 49 18.3 49C18.9 49 21.2 48.7 23.2 48.4L27 47.7L27.2 30.6L27.5 13.5L30.5 13.5L33.5 13.5L33.8 24.7C34 33.3 33.7 36.7 32.5 38.9C30.9 42 30.4 48.6 31.8 49.3C33.7 50.4 39.2 47.7 41 44.7C42.8 41.8 43 39.6 43 23.3C43 2.20001 43.4 3 33.1 3C28.3 3 27 2.70001 27 1.5C27 0.399994 25.8 0 22 0C18.3 0 17 0.399994 17 1.5L17 1.5Z" transform="translate(379 353.25)" id="Shape" fill="#ED1D2E" fill-rule="evenodd" stroke="none" />
        <path d="M0.239243 1.29999C0.0392303 2 -0.0607605 12.7 0.0392303 25L0.339233 47.5L4.33923 47.5L8.33923 47.5L8.63924 39.3C8.93924 30.1 10.6392 27.1 13.1392 31.2C21.3392 44.8 22.9392 46.8 26.3392 47.4C29.7392 48.1 35.9392 46.2 37.2392 44.2C37.5392 43.6 37.1392 41.4 36.3392 39.2C34.8392 35.6 34.4392 35.3 31.1392 35.4C27.6392 35.5 27.2392 35.2 23.1392 28.5L18.8392 21.6L26.5392 13.8L34.2392 6L31.3392 3C29.7392 1.39999 28.1392 0 27.8392 0C27.4392 0 23.6392 3.60001 19.2392 8C14.9392 12.4 10.8392 16 10.1392 16C9.13924 16 8.83923 13.8 8.83923 8L8.83923 0L4.83923 0C2.43924 0 0.53923 0.5 0.239243 1.29999L0.239243 1.29999Z" transform="translate(78.16077 355.25)" id="Shape" fill="#ED1D2E" fill-rule="evenodd" stroke="none" />
        <path d="M0.700001 0.700012C0.299999 1 0 3.29999 0 5.70001L0 10L6.3 10C11.8 10.1 12.3 10.2 10.7 11.4C9 12.7 8.9 14.2 9.2 27.5L9.5 42.2L12.8 45.1C17.4 49.2 19.5 48.9 20.8 43.9C21.7 40.3 21.6 39.4 19.9 37.1C18.2 34.7 18 33 18.2 22.5L18.5 10.5L24.3 10.2C29 10 30 9.60001 30 8.10001C30 7.10001 30.3 4.79999 30.6 3.10001L31.3 0L16.3 0C8.1 0 1 0.299988 0.700001 0.700012L0.700001 0.700012Z" transform="translate(0 356.25)" id="Shape" fill="#ED1D2E" fill-rule="evenodd" stroke="none" />
        <path d="M4.3 1.46429L0 2.26431L0 22.5643C0 38.4643 0.300003 43.1643 1.4 44.7643C2.7 46.4643 4.2 46.6643 19.3 46.6643C32.1 46.6643 36.1 46.3643 37.4 45.2643C39 43.9643 39.1 41.7643 38.8 23.6643C38.6 8.36432 38.2 3.0643 37.1 1.86432C35.2 -0.535706 13.9 -0.635681 12 1.66431C10.5 3.46429 9.3 3.5643 8.8 1.86432C8.6 0.864319 7.5 0.764282 4.3 1.46429L4.3 1.46429ZM29.8 23.3643L29.5 36.6643L19.5 36.6643L9.50002 36.6643L9.20003 23.3643L8.90002 10.1643L19.5 10.1643L30.1 10.1643L29.8 23.3643L29.8 23.3643Z" transform="translate(35 356.0857)" id="Shape" fill="#ED1D2E" fill-rule="evenodd" stroke="none" />
        <path d="M5.40013 1.0112C-0.0998688 2.21121 0.00012207 1.81119 0.00012207 22.4112C0.00012207 40.6112 0.100128 41.9112 2.10013 44.4112L4.30013 47.1112L20.0001 46.8112C31.5001 46.6112 36.1001 46.1112 37.3001 45.1112C38.8001 43.9112 39.0001 41.1112 39.0001 24.1112C39.0001 -1.28879 39.8001 0.0112 24.5001 0.0112C14.7001 0.0112 13.0001 0.211212 12.1001 1.71121C11.2001 3.31119 11.0001 3.41119 9.80013 1.91119C8.90013 0.711212 7.70012 0.5112 5.40013 1.0112L5.40013 1.0112ZM30.0001 23.5112L30.0001 37.0112L20.0001 37.0112L10.0001 37.0112L10.0001 23.5112L10.0001 10.0112L20.0001 10.0112L30.0001 10.0112L30.0001 23.5112L30.0001 23.5112Z" transform="translate(155.99988 356.23877)" id="Shape" fill="#ED1D2E" fill-rule="evenodd" stroke="none" />
        <path d="M3.88049 12C3.88049 20.9 3.58051 24.1 2.58051 24.7C1.78049 25.1 0.880493 27 0.580505 28.8C-0.0195007 31.6 0.180511 32.3 1.88049 32.7C4.18051 33.3 4.68051 36 2.4805 36C1.58051 36 0.880493 37.7 0.380493 40.6C0.0805054 43.1 -0.119507 45.3 0.0805054 45.5C0.780487 46.1 29.8805 46.8 30.2805 46.2C30.4805 45.8 30.9805 43.4 31.3805 40.8L32.0805 36.1L22.7805 35.8C17.1805 35.6 13.4805 35.1 13.5805 34.5C13.6805 33.9 14.6805 33.4 15.7805 33.2C17.5805 32.9 18.8805 30.4 18.8805 26.8C18.8805 25.7 17.8805 25 16.1805 24.8L13.3805 24.5L13.0805 12.2L12.7805 0L8.38049 0L3.88049 0L3.88049 12L3.88049 12Z" transform="translate(219.1195 356.25)" id="Shape" fill="#ED1D2E" fill-rule="evenodd" stroke="none" />
        <path d="M4.30002 1.16656L0 1.96658L0 22.2666C0 38.1666 0.300018 42.8666 1.39999 44.4666C2.70001 46.1666 4.20001 46.3666 19.3 46.3666C31.7 46.3666 36.1 46.0666 37.3 44.9666C38.8 43.7666 39 41.0666 39 24.4666C39 11.0666 38.6 4.66656 37.7 2.86658C36.5 0.466553 36.1 0.366577 24.7 0.0665893C14.9 -0.133423 12.9 0.0665893 12.4 1.36658C11.7 3.16656 9.30002 3.36658 8.80002 1.56659C8.60001 0.566589 7.5 0.466553 4.30002 1.16656L4.30002 1.16656ZM30 23.3665L30 36.9665L19.8 36.6664L9.5 36.3665L9.20001 24.4665C9.10001 17.8665 9.20001 11.8665 9.39999 11.1664C9.80002 10.2664 12.6 9.86646 20 9.86646L30 9.86646L30 23.3665L30 23.3665Z" transform="translate(255 356.38354)" id="Shape" fill="#ED1D2E" fill-rule="evenodd" stroke="none" />
        <path d="M2.50534 0.799988C2.20535 1.29999 1.70535 3.60001 1.30533 5.79999L0.605347 10L4.00534 10C7.30533 10 7.30533 10 5.10535 11.6C3.20535 12.9 2.90533 14 2.90533 20.2C2.90533 25.7 2.50534 27.6 1.20535 28.5C-0.294647 29.6 -0.394653 30.1 0.905334 32.6C1.60535 34.2 2.50534 38 2.80533 41L3.40533 46.5L7.40533 46.5L11.4053 46.5L11.7054 40.4C12.0053 34.9 12.2054 34.2 14.7054 33.1C17.0053 32 17.6053 32.1 18.7054 33.7C24.4053 42 26.9053 44.7 30.2054 46.3C35.3053 48.9 36.9053 48 36.9053 42.8C36.9053 38.9 36.5053 38.3 33.7054 36.7C31.9053 35.7 29.4053 33.4 28.2054 31.5L25.9053 28L28.7054 26.6C34.1053 23.8 35.2054 21.6 35.7054 12.4C36.4053 0 36.4053 0 17.8053 0C9.70535 0 2.80533 0.399994 2.50534 0.799988L2.50534 0.799988ZM26.7054 13.7C26.4053 17.1 25.9053 17.7 21.8053 19.7C19.3053 20.9 16.1053 22.2 14.6053 22.5L11.9053 23.2L11.9053 16.6L11.9053 10L19.5053 10L27.0053 10L26.7054 13.7L26.7054 13.7Z" transform="translate(298.09467 356.25)" id="Shape" fill="#ED1D2E" fill-rule="evenodd" stroke="none" />
        <path d="M0.700012 0.425995C0.300018 0.826019 0 3.12601 0 5.52603L0 9.82602L4.80002 9.92603C8.89999 9.92603 9.20001 10.126 7.30002 11.026C6 11.626 5 12.926 5 13.826C5 14.826 4.10001 15.826 3 16.126C1.39999 16.526 1 17.526 1 20.726C1 24.126 1.30002 24.826 3 24.826C4.80002 24.826 5 25.526 5 31.826C5 38.326 4.80002 38.826 2.89999 38.826C0.899994 38.826 0.800018 39.226 1.30002 43.326C1.5 45.926 2 48.226 2.39999 48.526C3 49.226 35.7 45.426 36.5 44.626C36.8 44.426 36.4 42.226 35.7 39.726C34.2 34.826 35.3 35.026 21.8 36.326L14 37.026L14 30.926L14 24.926L21.3 24.626L28.5 24.326L28.8 20.126L29.1 15.926L21.8 15.626C14.7 15.326 14.5 15.226 14.2 12.526L13.9 9.82602L24 9.82602L34.1 9.82602L33.8 5.02603L33.5 0.326019L17.4 0.0260315C8.60001 -0.0740051 1.10001 0.126007 0.700012 0.425995L0.700012 0.425995Z" transform="translate(339 356.42407)" id="Shape" fill="#ED1D2E" fill-rule="evenodd" stroke="none" />
        <path d="M2.8 2.5L0 4.89999L6.8 18.2C10.5 25.5 13.5 31.9 13.5 32.5C13.5 33 11.6 35 9.40001 37L5.2 40.6L7.40001 44.8L9.60001 49.1L14.2 45.8C27.5 36.2 34.4 22.9 34.5 6.70001L34.5 0L30.6 0L26.8 0L26.3 7.20001C25.8 15 22.4 24.5 20.3 23.8C19.7 23.6 16.4 18.1 13.1 11.7C9.7 5.29999 6.7 0 6.3 0C5.90001 0 4.3 1.10001 2.8 2.5L2.8 2.5Z" transform="translate(117.5 357.25)" id="Shape" fill="#ED1D2E" fill-rule="evenodd" stroke="none" />
      </g>
    </g>
  </g>
</svg>